<mxfile host="app.diagrams.net" modified="2023-05-16T15:31:47.580Z" agent="Mozilla/5.0 (Macintosh; Intel Mac OS X 10.15; rv:109.0) Gecko/20100101 Firefox/113.0" etag="OiDcAlHVSusdnrI7adMg" version="21.3.2" type="google">
  <diagram name="Pagina-1" id="TIbi5XY9o0WMuUt4cMGI">
    <mxGraphModel grid="1" page="1" gridSize="10" guides="1" tooltips="1" connect="1" arrows="1" fold="1" pageScale="1" pageWidth="827" pageHeight="1169" math="0" shadow="0">
      <root>
        <mxCell id="0" />
        <mxCell id="1" parent="0" />
        <mxCell id="01xbJRSzkq2dI7hdtQzA-1" value="Programma (C)" style="swimlane;fontStyle=1;align=center;verticalAlign=top;childLayout=stackLayout;horizontal=1;startSize=26;horizontalStack=0;resizeParent=1;resizeParentMax=0;resizeLast=0;collapsible=1;marginBottom=0;whiteSpace=wrap;html=1;" vertex="1" parent="1">
          <mxGeometry x="40" y="40" width="280" height="268" as="geometry" />
        </mxCell>
        <mxCell id="01xbJRSzkq2dI7hdtQzA-2" value="&lt;div&gt;- &lt;u&gt;film&lt;/u&gt; : Film[]&lt;/div&gt;&lt;div&gt;&lt;br&gt;&lt;/div&gt;" style="text;strokeColor=none;fillColor=none;align=left;verticalAlign=top;spacingLeft=4;spacingRight=4;overflow=hidden;rotatable=0;points=[[0,0.5],[1,0.5]];portConstraint=eastwest;whiteSpace=wrap;html=1;" vertex="1" parent="01xbJRSzkq2dI7hdtQzA-1">
          <mxGeometry y="26" width="280" height="74" as="geometry" />
        </mxCell>
        <mxCell id="01xbJRSzkq2dI7hdtQzA-3" value="" style="line;strokeWidth=1;fillColor=none;align=left;verticalAlign=middle;spacingTop=-1;spacingLeft=3;spacingRight=3;rotatable=0;labelPosition=right;points=[];portConstraint=eastwest;strokeColor=inherit;" vertex="1" parent="01xbJRSzkq2dI7hdtQzA-1">
          <mxGeometry y="100" width="280" height="8" as="geometry" />
        </mxCell>
        <mxCell id="01xbJRSzkq2dI7hdtQzA-4" value="&lt;div&gt;+ &lt;u&gt;main&lt;/u&gt; (args:String[]):void&lt;/div&gt;&lt;div&gt;+ &lt;u&gt;inserisciFilm()&lt;/u&gt;:void&lt;/div&gt;&lt;div&gt;+ &lt;u&gt;visualizzaFilm&lt;/u&gt;():void&lt;/div&gt;&lt;div&gt;+ &lt;u&gt;eliminaFilm&lt;/u&gt;():void&lt;/div&gt;&lt;div&gt;+ &lt;u&gt;ordinaFilm&lt;/u&gt;():void&lt;br&gt;&lt;/div&gt;&lt;div&gt;&lt;br&gt; &lt;/div&gt;" style="text;strokeColor=none;fillColor=none;align=left;verticalAlign=top;spacingLeft=4;spacingRight=4;overflow=hidden;rotatable=0;points=[[0,0.5],[1,0.5]];portConstraint=eastwest;whiteSpace=wrap;html=1;" vertex="1" parent="01xbJRSzkq2dI7hdtQzA-1">
          <mxGeometry y="108" width="280" height="160" as="geometry" />
        </mxCell>
        <mxCell id="01xbJRSzkq2dI7hdtQzA-9" value="ComparatorA (C) implements Comparator&amp;lt;Film&amp;gt;" style="swimlane;fontStyle=1;align=center;verticalAlign=top;childLayout=stackLayout;horizontal=1;startSize=26;horizontalStack=0;resizeParent=1;resizeParentMax=0;resizeLast=0;collapsible=1;marginBottom=0;whiteSpace=wrap;html=1;" vertex="1" parent="1">
          <mxGeometry x="440" y="360" width="280" height="194" as="geometry" />
        </mxCell>
        <mxCell id="01xbJRSzkq2dI7hdtQzA-11" value="" style="line;strokeWidth=1;fillColor=none;align=left;verticalAlign=middle;spacingTop=-1;spacingLeft=3;spacingRight=3;rotatable=0;labelPosition=right;points=[];portConstraint=eastwest;strokeColor=inherit;" vertex="1" parent="01xbJRSzkq2dI7hdtQzA-9">
          <mxGeometry y="26" width="280" height="8" as="geometry" />
        </mxCell>
        <mxCell id="01xbJRSzkq2dI7hdtQzA-12" value="+ compare(Film a, Film b): int" style="text;strokeColor=none;fillColor=none;align=left;verticalAlign=top;spacingLeft=4;spacingRight=4;overflow=hidden;rotatable=0;points=[[0,0.5],[1,0.5]];portConstraint=eastwest;whiteSpace=wrap;html=1;" vertex="1" parent="01xbJRSzkq2dI7hdtQzA-9">
          <mxGeometry y="34" width="280" height="160" as="geometry" />
        </mxCell>
        <mxCell id="01xbJRSzkq2dI7hdtQzA-13" value="ComparatorG (C) implements Comparator&amp;lt;Film&amp;gt;" style="swimlane;fontStyle=1;align=center;verticalAlign=top;childLayout=stackLayout;horizontal=1;startSize=26;horizontalStack=0;resizeParent=1;resizeParentMax=0;resizeLast=0;collapsible=1;marginBottom=0;whiteSpace=wrap;html=1;" vertex="1" parent="1">
          <mxGeometry x="40" y="360" width="280" height="194" as="geometry" />
        </mxCell>
        <mxCell id="01xbJRSzkq2dI7hdtQzA-15" value="" style="line;strokeWidth=1;fillColor=none;align=left;verticalAlign=middle;spacingTop=-1;spacingLeft=3;spacingRight=3;rotatable=0;labelPosition=right;points=[];portConstraint=eastwest;strokeColor=inherit;" vertex="1" parent="01xbJRSzkq2dI7hdtQzA-13">
          <mxGeometry y="26" width="280" height="8" as="geometry" />
        </mxCell>
        <mxCell id="01xbJRSzkq2dI7hdtQzA-16" value="+ compare(Film a, Film b): int" style="text;strokeColor=none;fillColor=none;align=left;verticalAlign=top;spacingLeft=4;spacingRight=4;overflow=hidden;rotatable=0;points=[[0,0.5],[1,0.5]];portConstraint=eastwest;whiteSpace=wrap;html=1;" vertex="1" parent="01xbJRSzkq2dI7hdtQzA-13">
          <mxGeometry y="34" width="280" height="160" as="geometry" />
        </mxCell>
        <mxCell id="01xbJRSzkq2dI7hdtQzA-17" value="ComparatorT (C) implements Comparator&amp;lt;Film&amp;gt;" style="swimlane;fontStyle=1;align=center;verticalAlign=top;childLayout=stackLayout;horizontal=1;startSize=26;horizontalStack=0;resizeParent=1;resizeParentMax=0;resizeLast=0;collapsible=1;marginBottom=0;whiteSpace=wrap;html=1;" vertex="1" parent="1">
          <mxGeometry x="440" y="40" width="280" height="194" as="geometry" />
        </mxCell>
        <mxCell id="01xbJRSzkq2dI7hdtQzA-19" value="" style="line;strokeWidth=1;fillColor=none;align=left;verticalAlign=middle;spacingTop=-1;spacingLeft=3;spacingRight=3;rotatable=0;labelPosition=right;points=[];portConstraint=eastwest;strokeColor=inherit;" vertex="1" parent="01xbJRSzkq2dI7hdtQzA-17">
          <mxGeometry y="26" width="280" height="8" as="geometry" />
        </mxCell>
        <mxCell id="01xbJRSzkq2dI7hdtQzA-20" value="+ compare(Film a, Film b): int" style="text;strokeColor=none;fillColor=none;align=left;verticalAlign=top;spacingLeft=4;spacingRight=4;overflow=hidden;rotatable=0;points=[[0,0.5],[1,0.5]];portConstraint=eastwest;whiteSpace=wrap;html=1;" vertex="1" parent="01xbJRSzkq2dI7hdtQzA-17">
          <mxGeometry y="34" width="280" height="160" as="geometry" />
        </mxCell>
        <mxCell id="01xbJRSzkq2dI7hdtQzA-25" value="Film (C)" style="swimlane;fontStyle=1;align=center;verticalAlign=top;childLayout=stackLayout;horizontal=1;startSize=26;horizontalStack=0;resizeParent=1;resizeParentMax=0;resizeLast=0;collapsible=1;marginBottom=0;whiteSpace=wrap;html=1;" vertex="1" parent="1">
          <mxGeometry x="240" y="680" width="280" height="268" as="geometry" />
        </mxCell>
        <mxCell id="01xbJRSzkq2dI7hdtQzA-26" value="&lt;div&gt;- titolo:String&lt;/div&gt;&lt;div&gt;- annoUscita:int&lt;/div&gt;&lt;div&gt;- genere:String&lt;br&gt;&lt;/div&gt;" style="text;strokeColor=none;fillColor=none;align=left;verticalAlign=top;spacingLeft=4;spacingRight=4;overflow=hidden;rotatable=0;points=[[0,0.5],[1,0.5]];portConstraint=eastwest;whiteSpace=wrap;html=1;" vertex="1" parent="01xbJRSzkq2dI7hdtQzA-25">
          <mxGeometry y="26" width="280" height="74" as="geometry" />
        </mxCell>
        <mxCell id="01xbJRSzkq2dI7hdtQzA-27" value="" style="line;strokeWidth=1;fillColor=none;align=left;verticalAlign=middle;spacingTop=-1;spacingLeft=3;spacingRight=3;rotatable=0;labelPosition=right;points=[];portConstraint=eastwest;strokeColor=inherit;" vertex="1" parent="01xbJRSzkq2dI7hdtQzA-25">
          <mxGeometry y="100" width="280" height="8" as="geometry" />
        </mxCell>
        <mxCell id="01xbJRSzkq2dI7hdtQzA-28" value="&lt;div&gt;+ Film(titolo:String,annoUscita:int,genere:String): &lt;br&gt;&lt;/div&gt;&lt;div&gt;+ get*&lt;/div&gt;&lt;div&gt;+ toString():String&lt;br&gt;&lt;/div&gt;" style="text;strokeColor=none;fillColor=none;align=left;verticalAlign=top;spacingLeft=4;spacingRight=4;overflow=hidden;rotatable=0;points=[[0,0.5],[1,0.5]];portConstraint=eastwest;whiteSpace=wrap;html=1;" vertex="1" parent="01xbJRSzkq2dI7hdtQzA-25">
          <mxGeometry y="108" width="280" height="160" as="geometry" />
        </mxCell>
      </root>
    </mxGraphModel>
  </diagram>
</mxfile>
